<svg data-v-423bf9ae="" xmlns="http://www.w3.org/2000/svg" viewBox="0 0 719 90" class="iconLeft"><!----><!----><!----><g data-v-423bf9ae="" id="7a2df0c6-1a2b-4f8f-996c-a6b4edea6b5d" fill="#ffffff" transform="matrix(5.830903811703725,0,0,5.830903811703725,178.8657184913775,2.3469397142517323)"><path d="M0.10 12.29L3.82 2.69L5.52 2.69L9.24 12.29L7.83 12.29L6.86 9.73L2.41 9.73L1.47 12.29L0.10 12.29ZM2.84 8.57L6.43 8.57L5.31 5.57L4.66 3.84L4.59 3.84L3.96 5.54L2.84 8.57ZM12.53 12.46L12.53 12.46Q11.42 12.46 10.83 11.87L10.83 11.87L10.83 11.87Q10.23 11.27 10.23 9.95L10.23 9.95L10.23 4.93L11.47 4.93L11.47 9.87L11.47 9.87Q11.47 10.75 11.86 11.09L11.86 11.09L11.86 11.09Q12.25 11.44 12.99 11.44L12.99 11.44L12.99 11.44Q13.52 11.44 13.97 11.18L13.97 11.18L13.97 11.18Q14.42 10.92 14.69 10.43L14.69 10.43L14.69 10.43Q14.95 9.94 14.95 9.28L14.95 9.28L14.95 4.93L16.18 4.93L16.18 12.29L15.25 12.29L15.11 11.30L15.01 11.30L15.01 11.30Q14.20 12.46 12.53 12.46L12.53 12.46ZM19.73 12.45L19.73 12.45Q18.97 12.45 18.62 12.00L18.62 12.00L18.62 12.00Q18.27 11.55 18.27 10.89L18.27 10.89L18.27 5.95L17.37 5.95L17.37 4.93L18.28 4.93L18.55 2.88L19.50 2.88L19.50 4.93L20.75 4.93L20.75 5.95L19.50 5.95L19.50 10.78L19.50 10.78Q19.50 11.44 20.12 11.44L20.12 11.44L20.75 11.44L20.75 12.25L20.75 12.25Q20.57 12.33 20.27 12.39L20.27 12.39L20.27 12.39Q19.98 12.45 19.73 12.45L19.73 12.45ZM24.91 12.46L24.91 12.46Q23.21 12.46 22.36 11.52L22.36 11.52L22.36 11.52Q21.50 10.57 21.50 8.61L21.50 8.61L21.50 8.61Q21.50 6.65 22.36 5.71L22.36 5.71L22.36 5.71Q23.21 4.76 24.91 4.76L24.91 4.76L24.91 4.76Q26.60 4.76 27.45 5.71L27.45 5.71L27.45 5.71Q28.31 6.65 28.31 8.61L28.31 8.61L28.31 8.61Q28.31 10.57 27.45 11.52L27.45 11.52L27.45 11.52Q26.60 12.46 24.91 12.46L24.91 12.46ZM24.91 11.44L24.91 11.44Q26.03 11.44 26.53 10.79L26.53 10.79L26.53 10.79Q27.03 10.14 27.03 8.67L27.03 8.67L27.03 8.55L27.03 8.55Q27.03 7.08 26.53 6.43L26.53 6.43L26.53 6.43Q26.03 5.78 24.91 5.78L24.91 5.78L24.91 5.78Q23.79 5.78 23.28 6.43L23.28 6.43L23.28 6.43Q22.78 7.08 22.78 8.55L22.78 8.55L22.78 8.67L22.78 8.67Q22.78 10.14 23.28 10.79L23.28 10.79L23.28 10.79Q23.79 11.44 24.91 11.44L24.91 11.44ZM29.90 12.29L29.90 2.69L33.46 2.69L33.46 2.69Q35.77 2.69 37.02 3.87L37.02 3.87L37.02 3.87Q38.26 5.05 38.26 7.49L38.26 7.49L38.26 7.49Q38.26 9.93 37.02 11.11L37.02 11.11L37.02 11.11Q35.77 12.29 33.46 12.29L33.46 12.29L29.90 12.29ZM31.23 11.13L33.46 11.13L33.46 11.13Q35.13 11.13 36.00 10.29L36.00 10.29L36.00 10.29Q36.88 9.45 36.89 7.52L36.89 7.52L36.89 7.49L36.89 7.49Q36.89 5.54 36.02 4.70L36.02 4.70L36.02 4.70Q35.14 3.85 33.46 3.85L33.46 3.85L31.23 3.85L31.23 11.13ZM42.97 12.46L42.97 12.46Q41.19 12.46 40.32 11.52L40.32 11.52L40.32 11.52Q39.45 10.58 39.45 8.61L39.45 8.61L39.45 8.61Q39.45 6.64 40.32 5.70L40.32 5.70L40.32 5.70Q41.19 4.76 42.97 4.76L42.97 4.76L42.97 4.76Q44.56 4.76 45.35 5.61L45.35 5.61L45.35 5.61Q46.14 6.45 46.14 8.33L46.14 8.33L46.14 8.95L40.73 8.95L40.73 8.95Q40.80 10.22 41.34 10.83L41.34 10.83L41.34 10.83Q41.87 11.44 42.97 11.44L42.97 11.44L42.97 11.44Q43.85 11.44 44.39 11.03L44.39 11.03L44.39 11.03Q44.94 10.63 44.94 9.79L44.94 9.79L46.14 9.79L46.14 9.79Q46.14 11.07 45.25 11.77L45.25 11.77L45.25 11.77Q44.37 12.46 42.97 12.46L42.97 12.46ZM40.75 7.92L44.86 7.92L44.86 7.92Q44.86 5.78 42.97 5.78L42.97 5.78L42.97 5.78Q41.92 5.78 41.39 6.29L41.39 6.29L41.39 6.29Q40.87 6.79 40.75 7.92L40.75 7.92ZM49.57 12.29L46.87 4.93L48.17 4.93L49.48 8.61L49.48 8.61Q49.66 9.13 49.90 9.90L49.90 9.90L49.90 9.90Q50.13 10.67 50.20 10.92L50.20 10.92L50.27 10.92L50.27 10.92Q50.34 10.68 50.57 9.93L50.57 9.93L50.57 9.93Q50.79 9.18 50.99 8.61L50.99 8.61L52.28 4.93L53.51 4.93L50.81 12.29L49.57 12.29ZM62.23 12.46L62.23 12.46Q60.48 12.46 59.37 11.76L59.37 11.76L59.37 11.76Q58.27 11.06 58.27 9.58L58.27 9.58L58.28 9.30L59.60 9.30L59.60 9.30Q59.60 9.31 59.58 9.39L59.58 9.39L59.58 9.39Q59.57 9.48 59.57 9.59L59.57 9.59L59.57 9.59Q59.57 10.44 60.28 10.88L60.28 10.88L60.28 10.88Q60.98 11.33 62.16 11.33L62.16 11.33L62.16 11.33Q63.48 11.33 64.18 10.91L64.18 10.91L64.18 10.91Q64.88 10.50 64.88 9.73L64.88 9.73L64.88 9.73Q64.88 9.21 64.51 8.87L64.51 8.87L64.51 8.87Q64.15 8.53 63.59 8.33L63.59 8.33L63.59 8.33Q63.04 8.13 62.10 7.90L62.10 7.90L62.10 7.90Q60.94 7.60 60.23 7.33L60.23 7.33L60.23 7.33Q59.51 7.06 59.01 6.52L59.01 6.52L59.01 6.52Q58.51 5.98 58.51 5.10L58.51 5.10L58.51 5.10Q58.51 3.84 59.56 3.18L59.56 3.18L59.56 3.18Q60.61 2.52 62.24 2.52L62.24 2.52L62.24 2.52Q63.88 2.52 64.90 3.19L64.90 3.19L64.90 3.19Q65.93 3.85 65.93 5.22L65.93 5.22L65.93 5.39L64.62 5.39L64.62 5.18L64.62 5.18Q64.62 4.47 63.97 4.06L63.97 4.06L63.97 4.06Q63.32 3.65 62.29 3.65L62.29 3.65L62.29 3.65Q61.18 3.65 60.52 3.99L60.52 3.99L60.52 3.99Q59.85 4.33 59.85 5.00L59.85 5.00L59.85 5.00Q59.85 5.49 60.21 5.80L60.21 5.80L60.21 5.80Q60.56 6.10 61.09 6.29L61.09 6.29L61.09 6.29Q61.61 6.48 62.55 6.72L62.55 6.72L62.55 6.72Q63.71 7.01 64.45 7.29L64.45 7.29L64.45 7.29Q65.18 7.57 65.69 8.11L65.69 8.11L65.69 8.11Q66.21 8.65 66.21 9.52L66.21 9.52L66.21 9.52Q66.21 11.06 65.14 11.76L65.14 11.76L65.14 11.76Q64.06 12.46 62.23 12.46L62.23 12.46ZM69.52 12.45L69.52 12.45Q68.77 12.45 68.42 12.00L68.42 12.00L68.42 12.00Q68.07 11.55 68.07 10.89L68.07 10.89L68.07 5.95L67.17 5.95L67.17 4.93L68.08 4.93L68.35 2.88L69.30 2.88L69.30 4.93L70.55 4.93L70.55 5.95L69.30 5.95L69.30 10.78L69.30 10.78Q69.30 11.44 69.92 11.44L69.92 11.44L70.55 11.44L70.55 12.25L70.55 12.25Q70.36 12.33 70.07 12.39L70.07 12.39L70.07 12.39Q69.78 12.45 69.52 12.45L69.52 12.45ZM73.75 12.46L73.75 12.46Q72.80 12.46 72.06 12.01L72.06 12.01L72.06 12.01Q71.32 11.56 71.32 10.39L71.32 10.39L71.32 10.39Q71.32 8.97 72.58 8.45L72.58 8.45L72.58 8.45Q73.84 7.92 76.22 7.92L76.22 7.92L76.22 7.11L76.22 7.11Q76.22 6.47 75.85 6.13L75.85 6.13L75.85 6.13Q75.49 5.78 74.54 5.78L74.54 5.78L74.54 5.78Q73.64 5.78 73.25 6.12L73.25 6.12L73.25 6.12Q72.87 6.45 72.87 6.94L72.87 6.94L72.87 7.11L71.68 7.11L71.68 7.11Q71.67 7.03 71.67 6.80L71.67 6.80L71.67 6.80Q71.67 5.82 72.48 5.29L72.48 5.29L72.48 5.29Q73.29 4.76 74.65 4.76L74.65 4.76L74.65 4.76Q76.02 4.76 76.73 5.33L76.73 5.33L76.73 5.33Q77.45 5.91 77.45 6.96L77.45 6.96L77.45 10.95L77.45 10.95Q77.45 11.20 77.59 11.32L77.59 11.32L77.59 11.32Q77.73 11.44 77.94 11.44L77.94 11.44L78.50 11.44L78.50 12.24L78.50 12.24Q78.13 12.40 77.55 12.40L77.55 12.40L77.55 12.40Q77.07 12.40 76.75 12.12L76.75 12.12L76.75 12.12Q76.43 11.83 76.31 11.35L76.31 11.35L76.22 11.35L76.22 11.35Q75.84 11.87 75.19 12.17L75.19 12.17L75.19 12.17Q74.54 12.46 73.75 12.46L73.75 12.46ZM74.07 11.44L74.07 11.44Q74.62 11.44 75.11 11.21L75.11 11.21L75.11 11.21Q75.60 10.99 75.91 10.55L75.91 10.55L75.91 10.55Q76.22 10.11 76.22 9.48L76.22 9.48L76.22 8.95L76.22 8.95Q74.41 8.95 73.51 9.23L73.51 9.23L73.51 9.23Q72.60 9.52 72.60 10.32L72.60 10.32L72.60 10.32Q72.60 10.92 72.97 11.18L72.97 11.18L72.97 11.18Q73.35 11.44 74.07 11.44L74.07 11.44ZM82.33 12.46L82.33 12.46Q80.65 12.46 79.87 11.53L79.87 11.53L79.87 11.53Q79.09 10.60 79.09 8.61L79.09 8.61L79.09 8.61Q79.09 6.64 79.88 5.70L79.88 5.70L79.88 5.70Q80.67 4.76 82.33 4.76L82.33 4.76L82.33 4.76Q83.85 4.76 84.55 5.49L84.55 5.49L84.55 5.49Q85.25 6.22 85.25 7.66L85.25 7.66L83.99 7.66L83.99 7.66Q83.99 6.66 83.63 6.22L83.63 6.22L83.63 6.22Q83.27 5.78 82.33 5.78L82.33 5.78L82.33 5.78Q81.31 5.78 80.84 6.45L80.84 6.45L80.84 6.45Q80.36 7.11 80.36 8.61L80.36 8.61L80.36 8.67L80.36 8.67Q80.36 10.15 80.82 10.79L80.82 10.79L80.82 10.79Q81.28 11.44 82.33 11.44L82.33 11.44L82.33 11.44Q83.26 11.44 83.66 10.97L83.66 10.97L83.66 10.97Q84.06 10.50 84.06 9.56L84.06 9.56L85.25 9.56L85.25 9.56Q85.25 10.82 84.53 11.64L84.53 11.64L84.53 11.64Q83.82 12.46 82.33 12.46L82.33 12.46ZM86.53 12.29L86.53 2.17L87.77 2.17L87.77 8.54L90.89 4.93L92.41 4.93L89.88 7.83L92.55 12.29L91.13 12.29L89.11 8.71L87.77 9.98L87.77 12.29L86.53 12.29Z"></path></g><!----><g data-v-423bf9ae="" id="e70e5052-9fc2-47a8-a8cf-d3b7204c433f" transform="matrix(1.7716535699146536,0,0,1.7716535699146536,0.27558935384058714,0)" stroke="none" fill="#010033"><path clip-rule="evenodd" d="M80 2.3C80 1 78.9 0 77.6 0H12.3C11 0 10 1 10 2.3v44.3h70V2.3zM44.6.8c.7 0 1.2.6 1.2 1.3 0 .7-.6 1.3-1.2 1.3-.7 0-1.2-.6-1.2-1.3-.1-.7.5-1.3 1.2-1.3zm31.2 41.7H14.2V4.2h61.6v38.3zm-23.8 5c-.1.6-.5.8-1.1.8H39.1c-.6 0-1-.2-1.1-.8H0v1.6c0 .9 6.3 1.7 14 1.7h62c7.7 0 14-.8 14-1.7v-1.6H52zm8.8-25.3l-11.6-4.9v3.2l8 3.1-8 3.1v3.2L60.8 25v-2.8zM43.2 32c.3 0 .5-.1.7-.2.2-.1.3-.3.4-.6.1-.2.2-.6.3-1l3.1-12.9c.2-.6.2-1 .2-1.3 0-.3-.1-.6-.3-.7-.2-.3-.5-.3-.8-.3-.4 0-.7.1-.9.4-.1.3-.3.7-.5 1.4l-3.1 12.9c-.1.7-.2 1.1-.2 1.3 0 .6.3 1 1.1 1zm-2.4-5.4l-8-3.1 8-3v-3.2l-11.7 4.9v2.7l11.7 4.9v-3.2z"></path></g><!----></svg>